# xmcd
#
# Track frame offsets:
#	150
#	19465
#	45540
#	70435
#	100205
#	113270
#	136075
#	149615
#	169195
#	187035
#	197555
#	216710
#	240570
#	258345
#	276255
#	303025
#
# Disc length: 4368
#
# Revision: 7
# Processed by: cddbd v1.5.1PL0 Copyright (c) Steve Scherf et al.
# Submitted via: EasyCDDAExtractor 6.5.2.1
# Normalized: r6:DSETVAR1
#
DISCID=ee110e10
DTITLE=Various Artist - Sax and Sex
DYEAR=1900
DGENRE=Blues
TTITLE0=Dave Stewart and Candy Dufler - Lili Was Here
TTITLE1=Kenny G. - Let Go
TTITLE2=David Sanborn - Goodbye
TTITLE3=George Howard - Baby Come To Me
TTITLE4=Sil Austin - Johnny Guitar
TTITLE5=Richard Elliot - I'm Not In Love
TTITLE6=The Gino Marinello Orchestra - Girl
TTITLE7=Chris White - A New Day
TTITLE8=Candy Dufler - Home Is Not A House
TTITLE9=David Sanborn - Same Girt
TTITLE10=Kenny G. - Going Home
TTITLE11=Sade - Sempre Hay Esperanza
TTITLE12=Brancaster Studio Orchestra - Careless Whisper
TTITLE13=The Alan Parsons Project - Pipeline
TTITLE14=The Gino Marinello Orchestra - Angie
TTITLE15=Kenny G. - Silhouette
EXTD=
EXTT0=Dave Stewart and Candy Dufler\n
EXTT1=Kenny G.\n
EXTT2=David Sanborn\n
EXTT3=George Howard\n
EXTT4=Sil Austin\n
EXTT5=Richard Elliot\n
EXTT6=The Gino Marinello orchestra\n
EXTT7=Chris White\n
EXTT8=Candy Dufler\n
EXTT9=David Sanborn\n
EXTT10=Kenny G.\n
EXTT11=Sade\n
EXTT12=Brancaster studio orchestra\n
EXTT13=The Alan Parsons project\n
EXTT14=The Gino Marinello orchestra\n
EXTT15=Kenny G.\n
PLAYORDER=
